# xmcd
#
# Track frame offsets:
#	150
#	18201
#	35585
#	52886
#	73514
#	91329
#	104193
#	122352
#	135993
#	156497
#
# Disc length: 2389 seconds
#
# Revision: 1
# Processed by: cddbd v1.5.2PL0 Copyright (c) Steve Scherf et al.
# Submitted via: EasyCDDAExtractor 7.0.3.1
#
DISCID=7e09530a
DTITLE=Morgan Blanchard
DYEAR=1900
DGENRE=Country
TTITLE0=Heartbeat
TTITLE1=All These Songs
TTITLE2=Three Little Words
TTITLE3=Man In the Mirror
TTITLE4=The Storm
TTITLE5=The Woman For Me
TTITLE6=World Of Lonely
TTITLE7=I Would Say I Do
TTITLE8=Crystal Blues
TTITLE9=Eli the Cajun Man
EXTD=
EXTT0=
EXTT1=
EXTT2=
EXTT3=
EXTT4=
EXTT5=
EXTT6=
EXTT7=
EXTT8=
EXTT9=
PLAYORDER=
